<?xml version="1.0" encoding="UTF-8" standalone="no"?>
<!DOCTYPE svg PUBLIC "-//W3C//DTD SVG 1.1//EN" "http://www.w3.org/Graphics/SVG/1.1/DTD/svg11.dtd">

<svg viewBox="0 0 1000 600" xmlns="http://www.w3.org/2000/svg" xmlns:xlink="http://www.w3.org/1999/xlink">
  <defs>
    <linearGradient id="grad1" x1="50%" y1="0%" x2="50%" y2="100%" > 
      <stop offset="0%" stop-color="#7A5FFF">
        <animate attributeName="stop-color" values="#7A5FFF; #01FF89; #7A5FFF" dur="10s" repeatCount="indefinite"></animate>
      </stop>
      <stop offset="100%" stop-color="#01FF89">
        <animate attributeName="stop-color" values="#01FF89; #7A5FFF; #01FF89" dur="10s" repeatCount="indefinite"></animate>
      </stop>
    </linearGradient> 
  </defs>
  <path id="p1"
    d="M 0 0 l 1000 0 l 0 150 c -400 100 -600 -100 -1000 0 z"
    stroke="none" fill="lightblue"
    stroke-width="0" />
  <animate xlink:href="#p1"
    attributeName="d"
    attributeType="XML"
    values="M 0 0 l 1000 0 l 0 150 c -400 100 -600 -100 -1000 0 z;
            M 0 0 l 1000 0 l 0 150 c -400 -100 -600 100 -1000 0 z;
            M 0 0 l 1000 0 l 0 150 c -400 100 -600 -100 -1000 0 z"
    dur="25s"
    repeatCount="indefinite" />
  <text x="1em" y="2em" font-size="2em" fill="black">Hi there 👋</text>
  <path id="p2"
    d="M 0 450 c 400 100 600 -100 1000 0 l 0 150 l -1000 0 z"
    stroke="none" fill="url(#grad1)"
    stroke-width="0"/>
  <animate xlink:href="#p2"
    attributeName="d"
    attributeType="XML"
    values="M 0 450 c 400 100 600 -100 1000 0 l 0 150 l -1000 0 z;
           M 0 450 c 400 -100 600 100 1000 0 l 0 150 l -1000 0 z;
           M 0 450 c 400 100 600 -100 1000 0 l 0 150 l -1000 0 z"    
    dur="30s"
    repeatCount="indefinite" />
  <!--a href="https://twitter.com/andre_a_bell">
    <path class="twitter" stroke="none" stroke-width="0" fill="black" transform="translate(900 530) scale(0.18)" d="M153.62,301.59c94.34,0,145.94-78.16,145.94-145.94,0-2.22,0-4.43-.15-6.63A104.36,104.36,0,0,0,325,122.47a102.38,102.38,0,0,1-29.46,8.07,51.47,51.47,0,0,0,22.55-28.37,102.79,102.79,0,0,1-32.57,12.45,51.34,51.34,0,0,0-87.41,46.78A145.62,145.62,0,0,1,92.4,107.81a51.33,51.33,0,0,0,15.88,68.47A50.91,50.91,0,0,1,85,169.86c0,.21,0,.43,0,.65a51.31,51.31,0,0,0,41.15,50.28,51.21,51.21,0,0,1-23.16.88,51.35,51.35,0,0,0,47.92,35.62,102.92,102.92,0,0,1-63.7,22A104.41,104.41,0,0,1,75,278.55a145.21,145.21,0,0,0,78.62,23"/>
  </a>
  <a href="https://dev.to/andrebell">
    <path transform="translate(850 540) scale(0.1)" d="M120.12 208.29c-3.88-2.9-7.77-4.35-11.65-4.35H91.03v104.47h17.45c3.88 0 7.77-1.45 11.65-4.35s5.82-7.25 5.82-13.06v-69.65c-.01-5.8-1.96-10.16-5.83-13.06zM404.1 32H43.9C19.7 32 .06 51.59 0 75.8v360.4C.06 460.41 19.7 480 43.9 480h360.2c24.21 0 43.84-19.59 43.9-43.8V75.8c-.06-24.21-19.7-43.8-43.9-43.8zM154.2 291.19c0 18.81-11.61 47.31-48.36 47.25h-46.4V172.98h47.38c35.44 0 47.36 28.46 47.37 47.28zm100.68-88.66H201.6v38.42h32.57v29.57H201.6v38.41h53.29v29.57h-62.18c-11.16.29-20.44-8.53-20.72-19.69V193.7c-.27-11.15 8.56-20.41 19.71-20.69h63.19zm103.64 115.29c-13.2 30.75-36.85 24.63-47.44 0l-38.53-144.8h32.57l29.71 113.72 29.57-113.72h32.58z"/>
  </a>
  <a href="https://andre-bell.de">
    <path d="M810 545l20 20l0 22l-40 0l0 -22z" />
  </a-->
</svg>
